<svg xmlns="http://www.w3.org/2000/svg" xmlns:xlink="http://www.w3.org/1999/xlink" width="80.721" height="41.083" viewBox="0 0 80.721 41.083">
  <defs>
    <linearGradient id="linear-gradient" x1="0.174" y1="0.726" x2="0.877" y2="0.259" gradientUnits="objectBoundingBox">
      <stop offset="0" stop-color="#004b86"/>
      <stop offset="1" stop-color="#002643"/>
    </linearGradient>
  </defs>
  <path id="パス_5779" data-name="パス 5779" d="M.163-25.185A27.384,27.384,0,0,1-1.7-15.212,26.511,26.511,0,0,1-6.775-6.865,26.123,26.123,0,0,1-14.507-.994a22,22,0,0,1-9.9,2.15q-7.227,0-11.31-4.155A14.248,14.248,0,0,1-39.8-13.405a27.553,27.553,0,0,1,1.9-10.244,27.476,27.476,0,0,1,5.257-8.473,24.161,24.161,0,0,1,7.823-5.709,22.6,22.6,0,0,1,9.593-2.1q7.407,0,11.4,4.282A14.772,14.772,0,0,1,.163-25.185Zm-7.7-1.626q0-5.131-2.186-7.769a7.392,7.392,0,0,0-6.016-2.638,11.457,11.457,0,0,0-7.154,2.439,19.045,19.045,0,0,0-5.348,6.811A36.606,36.606,0,0,0-31.11-19.8a36.156,36.156,0,0,0-.994,7.949q0,4.842,2.1,7.57A7.311,7.311,0,0,0-23.83-1.554a11.7,11.7,0,0,0,6.9-2.222A18.4,18.4,0,0,0-11.4-10.768a34.377,34.377,0,0,0,2.945-8.311A37.283,37.283,0,0,0-7.534-26.811ZM40.92-28.617a11.222,11.222,0,0,1-1.951,6.7,16.335,16.335,0,0,1-5.312,4.643,32.088,32.088,0,0,1-5.872,2.547q-3.342,1.1-7.353,2.294A46.667,46.667,0,0,0,13.8-9.918,17.6,17.6,0,0,0,8.545-6.287h28.8L35.862,0H2.005L3.2-4.914A20.035,20.035,0,0,1,5.8-7.732a26.079,26.079,0,0,1,3.577-2.674,45.585,45.585,0,0,1,4.029-2.2q2.222-1.084,4.824-2.1,3.36-1.3,5.872-2.547A27.414,27.414,0,0,0,28.346-19.8a11.727,11.727,0,0,0,3.74-4.246,12.266,12.266,0,0,0,1.1-5.366,7.929,7.929,0,0,0-1.951-5.655,6.624,6.624,0,0,0-5.059-2.078A11.3,11.3,0,0,0,21.083-36.1a7.683,7.683,0,0,0-2.927,2.24q0,.434.054,1.229t.054,1.915A7.786,7.786,0,0,1,17-25.853a4.835,4.835,0,0,1-4.047,1.608,3.468,3.468,0,0,1-2.764-.921,3.385,3.385,0,0,1-.777-2.258,8.32,8.32,0,0,1,1.319-4.318,15.065,15.065,0,0,1,3.74-4.065,19.245,19.245,0,0,1,5.637-2.981,21.62,21.62,0,0,1,7.118-1.138q6.143,0,9.918,3.035A10.047,10.047,0,0,1,40.92-28.617Z" transform="translate(39.8 39.927)" fill="url(#linear-gradient)"/>
</svg>
