<svg xmlns="http://www.w3.org/2000/svg" xmlns:xlink="http://www.w3.org/1999/xlink" width="80.323" height="53.115" viewBox="0 0 80.323 53.115">
  <defs>
    <linearGradient id="linear-gradient" x1="0.789" y1="0.255" x2="0.351" y2="0.666" gradientUnits="objectBoundingBox">
      <stop offset="0" stop-color="#012b4f"/>
      <stop offset="1" stop-color="#004b87"/>
    </linearGradient>
  </defs>
  <path id="パス_5778" data-name="パス 5778" d="M.416-25.185a27.384,27.384,0,0,1-1.861,9.973A26.511,26.511,0,0,1-6.522-6.865,26.123,26.123,0,0,1-14.254-.994a22,22,0,0,1-9.9,2.15q-7.227,0-11.31-4.155a14.248,14.248,0,0,1-4.083-10.406,27.553,27.553,0,0,1,1.9-10.244,27.476,27.476,0,0,1,5.257-8.473,24.161,24.161,0,0,1,7.823-5.709,22.6,22.6,0,0,1,9.593-2.1q7.407,0,11.4,4.282A14.772,14.772,0,0,1,.416-25.185Zm-7.7-1.626q0-5.131-2.186-7.769a7.392,7.392,0,0,0-6.016-2.638,11.457,11.457,0,0,0-7.154,2.439,19.045,19.045,0,0,0-5.348,6.811A36.606,36.606,0,0,0-30.857-19.8a36.156,36.156,0,0,0-.994,7.949q0,4.842,2.1,7.57a7.311,7.311,0,0,0,6.179,2.728,11.7,11.7,0,0,0,6.9-2.222,18.4,18.4,0,0,0,5.528-6.992A34.377,34.377,0,0,0-8.2-19.078,37.283,37.283,0,0,0-7.281-26.811Zm45.6-9.575a8.506,8.506,0,0,1,1.9,3.18,11.017,11.017,0,0,1,.56,3.4,12.594,12.594,0,0,1-.759,4.029,12.744,12.744,0,0,1-2.168,3.957A16.553,16.553,0,0,1,33.73-18.3a22.6,22.6,0,0,1-6.287,2.583l-.217.578a16.146,16.146,0,0,1,3.667.777,12.667,12.667,0,0,1,3.451,1.716,9.051,9.051,0,0,1,2.6,2.981,8.847,8.847,0,0,1,1.012,4.354,15.454,15.454,0,0,1-1.9,7.57,18.325,18.325,0,0,1-4.968,5.8,24.489,24.489,0,0,1-7.281,3.794,27.645,27.645,0,0,1-8.69,1.337A16.711,16.711,0,0,1,5.51,10.6Q1.716,8.021,1.716,4.228A6.8,6.8,0,0,1,3.053.072,4.228,4.228,0,0,1,6.63-1.734a3.945,3.945,0,0,1,2.927.958,3,3,0,0,1,.939,2.15,7.067,7.067,0,0,1-.831,3.2Q8.834,6.215,8.329,7.3a7.566,7.566,0,0,0,.723.795,6.143,6.143,0,0,0,1.518,1.048,11.759,11.759,0,0,0,2.439.885,13.525,13.525,0,0,0,3.378.379,12.389,12.389,0,0,0,4.932-1.1,13.676,13.676,0,0,0,4.462-3.089,16.535,16.535,0,0,0,3.252-5.077,18.309,18.309,0,0,0,1.229-7.064A6.124,6.124,0,0,0,28.075-11q-2.186-1.752-6.414-1.752H16.82l.939-4.011h3.216a10.853,10.853,0,0,0,8.816-3.92,14.742,14.742,0,0,0,3.252-9.738,6.914,6.914,0,0,0-1.662-5,6.59,6.59,0,0,0-4.95-1.716,10.754,10.754,0,0,0-4.589.958,9.758,9.758,0,0,0-3.144,2.15q0,.4.036,1.247t.036,1.825q0,3.469-1.445,5.095a5.5,5.5,0,0,1-4.336,1.626,2.936,2.936,0,0,1-2.475-.921,3.666,3.666,0,0,1-.7-2.294,8.038,8.038,0,0,1,1.229-4.155A15.253,15.253,0,0,1,14.8-35.663a19.978,19.978,0,0,1,5.781-3.017,22.688,22.688,0,0,1,7.588-1.247,16.915,16.915,0,0,1,6.2.994A10.655,10.655,0,0,1,38.319-36.386Z" transform="translate(39.547 39.927)" fill="url(#linear-gradient)"/>
</svg>
