<svg xmlns="http://www.w3.org/2000/svg" xmlns:xlink="http://www.w3.org/1999/xlink" width="69.543" height="42.193" viewBox="0 0 69.543 42.193">
  <defs>
    <linearGradient id="linear-gradient" x1="0.902" y1="0.415" x2="0.163" y2="0.771" gradientUnits="objectBoundingBox">
      <stop offset="0" stop-color="#012b4f"/>
      <stop offset="1" stop-color="#004b87"/>
    </linearGradient>
  </defs>
  <path id="パス_5777" data-name="パス 5777" d="M44.717-25.865a28.124,28.124,0,0,1-1.911,10.242,27.228,27.228,0,0,1-5.214,8.572,26.829,26.829,0,0,1-7.941,6.03A22.592,22.592,0,0,1,19.482,1.188q-7.422,0-11.615-4.268A14.633,14.633,0,0,1,3.674-13.768,28.3,28.3,0,0,1,5.622-24.288a28.218,28.218,0,0,1,5.4-8.7,24.814,24.814,0,0,1,8.034-5.863,23.208,23.208,0,0,1,9.853-2.152q7.607,0,11.708,4.4A15.171,15.171,0,0,1,44.717-25.865Zm-7.9-1.67q0-5.27-2.245-7.979a7.591,7.591,0,0,0-6.179-2.709,11.767,11.767,0,0,0-7.348,2.5,19.56,19.56,0,0,0-5.492,7,37.6,37.6,0,0,0-2.95,8.387,37.133,37.133,0,0,0-1.021,8.164q0,4.973,2.152,7.774a7.508,7.508,0,0,0,6.346,2.8,12.014,12.014,0,0,0,7.088-2.282,18.9,18.9,0,0,0,5.678-7.181,35.306,35.306,0,0,0,3.024-8.535A38.291,38.291,0,0,0,36.813-27.535Zm36.4-13.471q-.779,2.783-1.707,6.364t-1.262,5.065L65.127-7.385a4.776,4.776,0,0,0-.111.631,5.725,5.725,0,0,0-.037.631,2.788,2.788,0,0,0,.445,1.614,2.7,2.7,0,0,0,1.076.946,11.212,11.212,0,0,0,2.82.705q2.078.334,3.34.408L72.066,0H47.055l.594-2.449q1.15-.074,3.544-.315a24.1,24.1,0,0,0,3.358-.5,4.556,4.556,0,0,0,1.967-1.317,4.941,4.941,0,0,0,1.262-2.394L63.865-33.4h-9.24l.668-2.932h2.041a19.734,19.734,0,0,0,7.236-1.317,17.251,17.251,0,0,0,5.566-3.358Z" transform="translate(-3.674 41.006)" fill="url(#linear-gradient)"/>
</svg>
