<svg xmlns="http://www.w3.org/2000/svg" width="157.292" height="28.406" viewBox="0 0 157.292 28.406">
  <path id="パス_5786" data-name="パス 5786" d="M5.588,5.588l.025.025.123.1.025.025a1.156,1.156,0,0,0,.148.222l.074.32.32.345.32.3.148.123.1.148.074.025.148-.049.1.049.172.025.074.049h.172l.025.049.049.123.246.123v.074l.049.049V7.631l.1.049.123.074.049-.025.049.025.246.148.3.025.148.049.049-.025L8.985,7.9h.049l.222.049.074.025.025-.049.148.049.148-.025.049.025.148-.049a12.854,12.854,0,0,0,1.378,0l.148.025h-.025L11.4,8l.1-.025.2.049.148-.049h.049L11.914,8l.148-.049L12.086,8V7.951l.148-.049V7.852l.025-.025.246.025.3-.049.369-.148A25.244,25.244,0,0,0,15.9,6.942l.025-.025h.049l.246-.049.394-.074.32-.074.2-.1.443-.271.812-.246.394-.32.148-.123c.566-.271,1.132-.566,1.7-.862L21,4.677l.271-.123.517-.3.123-.074.222-.172.123-.074.025-.025c.2-.123.394-.246.591-.345l1.6-1.009.32-.2.1-.049.123-.1c.911-.615,1.8-1.231,2.658-1.9L27.815.3,27.84.222l.738-.566H28.7V-.394l.074-.1a4.279,4.279,0,0,1,.369-.32l.492-.3.3-.246.246-.148.2-.148.123-.123.222-.32.32-.222.172-.246.074-.148C31.7-3.1,32.1-3.5,32.492-3.914l.1-.025h.074l-.025-.074.049-.1.492-.542.246-.222.123-.148.345-.345.148-.172.1-.148.172-.369.271-.271.148-.246.025-.123a12.34,12.34,0,0,0,.886-1.477l.074-.025.271-.271.2-.542.3-.345.049-.246.025-.1.049-.025v-.2l-.025-.025.2-.394.172-.418L37-10.929l.025-.443L37-11.545v-.1l-.049-.246v-.172c0-.172.025-.369.025-.542L37-12.677l.025-.148L37-12.948l.074-.246v-.1l-.049-.2-.074-.148v-.172l-.074-.148v-.049l-.025-.1-.1-.172a4.964,4.964,0,0,0-.935-1.625l-.369-.369-.025-.074-.1-.049h-.074a3.275,3.275,0,0,0-.468-.345l-.049-.074-.049.025a10.6,10.6,0,0,0-1.3-.615l-.074-.049-.3-.123-.2-.123-.172-.049-.394-.074-.32-.172-.3-.049h-.394l-.172.025H31.04c-.271-.074-.542-.123-.812-.172l-.025-.025-.64-.222-1.182-.049h-.148l-.148.025a12.93,12.93,0,0,0-1.378-.074l-.025-.025-.222-.025-.172.025-.369-.074h-.148l-.3.049-.123.025-2.412.074-.1-.025-.394.049-.3-.049-.123.025-.074.025-.049-.025-.025-.025-.025.025.025.025-.1.025-.025.025-.492.049.886-.468h.1l.3-.025.148-.1h.1l.148-.1.025-.049.1-.025.246-.1h.1l.172-.074.049.074v.049H23.7l.025-.049.394.049.32.049.148-.049.492-.123.369-.32.025-.345-.049-.246-.1-.049-.172-.025.049-.1h-.025l-.025.049-.074.025-.714.123-.738.172-.025.025-.049-.074-.123-.074-.271.074-.271.3-.074.123h-.074l-.049.049-.172.049-.394.049-.615.123-.2-.025-.271.074-.1.1-.074.172-.1.074-.172.2-.1.074-.271.271-.148.123-.1-.074-.074.025-.1.1-.246.074-1.255.172h-.025l-.025.025c-.074,0-.148.025-.222.025l-.123-.025-.1.025-.172.074c-.1,0-.2.049-.271.049v-.025l-.148.049-.985.222-.074-.025-.862.172-.123.074-.32.1-.1.049-.615.2-.3.025-.172.123-.911.3h-.049l-.271.074-.025.025h-.025l-.1.049h-.1l-.074.049-.271.148-.172.074q-1.034.406-1.92.812l-.172.025-.074.049v.049l-.492.246H8.911l-.172.025-.2-.025-.049.025-.074.148-.222.148-.1.049-.172.172-.222.1-.246.148-.074.025-.2.049-.123.049-.1.074-.246.049-.1.049-.148.148-.1.123-.148.074-.1.148-.172.1-.049-.025.025.049c-.025,0-.049.025-.074.025H5.785l-.123.049-.271.172L5-12.923l-.148.148L4.8-12.7l-.148.123L4.48-12.5l-.1.074V-12.5l-.074.025-.1.074v.049l.074-.025-.049.025-.074.1-.025.025-.074.025-.025.025-.025.049-.345.271-.074.049-.271.2-.123.1-.418.32-.074.049-.911.738-.123.074-.148.1-.074.025-.246.172-.049.1-.074.025-.345.271-.074.074-.074.049-.025.074-.1.1H.443L.32-9.28v.025c-.025,0-.049.025-.074.049l-.172.1L0-9.058l-.123.123L-.3-8.812l-.542.443-.148.049-.025.1v.074l.025.049.1-.025.074-.025.074-.1.1-.074h.049l.148-.123.985-.738.123-.049L.714-9.3l1.034-.837.1-.049.172-.148.222-.172.148-.1.345-.271.935-.689.1-.049.32-.271c.3-.222.615-.418.911-.615l.049-.025.049-.049.049.025v.025l.049-.025v-.025l.148-.148c.025-.025.049-.025.049-.049l.369-.2.246-.1.172-.123h.049l.025-.049.123-.074h.074l.074-.074.246-.172.2-.123H6.942c.591-.32,1.206-.64,1.822-.935l.443-.1.862-.492.3-.123.1-.025.172-.049h.025l1.009-.3.049-.049.271-.074h.025v-.025l.886-.271.148-.074.3-.123.246-.1h.025l.271-.049.172-.074.566-.2.074-.025.492-.148.492-.172.812-.222h.025l.394-.074h.222l.074-.049.1.025.148-.049.1-.074,1.625-.3a.024.024,0,0,1-.025.025h.025l-.025.025L19-17.649l-.32.123-.1.074-.2.2-.123.222-.2.172-.1.2-.074.025-.1.148-.443.123-.32.271-.074.049-.1.049-.418.418-.148.271-.3.394-.566.542-.2.271-.222.222-.1.172c-.492.443-.985.96-1.477,1.452v.025l-.222.222-.394.468L12.283-11l-.025.1-.271.3-.074.1-.2.123-.025.1-.049.123-.665.812H10.9l-.049.1-.025.074-.443.591-.271.222-.074.148L9.9-8.049l-.2.2-.172.2-.074.148L9.3-7.138a.024.024,0,0,0-.025.025l-.222.246-.123.246-.468.738-.049.049-.394.665-.443.788-.049.049-.1.123-.025.123-.394.763-.025.1-.148.369-.025.049a1.506,1.506,0,0,0-.123.3l-.2.246-.123.172-.1.32-.025.1L6.228-1.5,6.2-1.4v.2l-.3.812-.049.123v.1A.09.09,0,0,0,5.834-.1L5.711.074v.1L5.686.394l-.074.3L5.588.763V.738L5.538.763l-.049.1-.1.148-.049.172v.025l-.025.025V1.3l-.025.074H5.243V1.4h.025v.148l.025.025.025.049V1.7l.049.049.025.049-.1.492v.074a.365.365,0,0,0-.025.172.681.681,0,0,0-.025.222H5.218V2.9l-.049.222.025.172v.074H5.169v.2l-.025.025h.025l.049.738.025.025c.025.418.074.271.2.64l-.025.049V5.12l.025.074H5.415v.049l.049-.025.025.049.074.074a.188.188,0,0,0,.049.123ZM28.578-.985l-.542.443-1.28.985-.64.468-.246.148-.271.148-.123.148-.246.1-.369.2-.2.074-.148.172-.172.2-.271.2-.1.148c-1.108.738-2.24,1.4-3.372,2.018l-.3.148-.566.271-.443.172-.2.2-.542.271-.148.049-.025.025c-.468.222-.935.443-1.4.64-.418.172-.96.345-1.6.542H15.36l-.517.123-.443.025-.222.025-.3.1-.345.1L13,7.188l-.172.049-.345.123-.123.049-.049-.025-.049.025h-.468l-.123-.074-.074-.025-.049.025h-.074l-.1.074-.271.049-.369.074h-.591l-.1-.025-.3-.1-.2-.025H9.5l-.3-.123-.468-.3-.172-.172-.1-.049-.074-.074L8.246,6.7l-.123.049-.2-.074L7.7,6.6l-.2-.049-.345-.222-.148-.1-.025-.074-.2-.271-.517-.345-.025-.1-.1-.246-.172-.172a2.9,2.9,0,0,1-.222-.911v-.2l-.025-.1V3.668L5.711,3.52,5.735,3.5V3.372l-.025-.1L5.735,3.2V3.1l.025-.074V2.56a5.846,5.846,0,0,1-.025-1.132L5.76,1.4,5.908.714A2.6,2.6,0,0,1,6.031.246L6.129.1,6.1.049,6.6-.96l-.025-.148v-.025a1.388,1.388,0,0,1,.1-.3L6.7-1.477v-.049c.246-.763.345-.591.542-1.083l.1-.271L7.508-3.1l.2-.32.148-.418.025-.1L8.1-4.357,8.271-4.6,8.3-4.677l.1-.148h.049L8.418-4.9l.443-.542.025-.074.049-.049.1-.2.1-.172h.049l.1-.2.074-.123.271-.369.025-.049.246-.3.2-.369.394-.542L10.634-8l.1-.148.049-.049.615-.837.049-.025.32-.492.271-.32.148-.049.148-.32a1.476,1.476,0,0,1,.271-.3l.074-.025.074-.172.468-.566h.049l.148-.222.172-.1.074-.148.025-.025.148-.1.3-.172.246-.3.148-.246.615-.64.222-.123.418-.369L16-13.858l.468-.517.369-.246.763-.812.812-.615.222-.222.246-.2.714-.665.394-.394v-.025l.492-.345.418-.025.222.074.2-.074.665-.049H22.4l.1-.025,1.28-.049.123.025.394.1.492-.123h.542c.492.025,1.058.025,1.674.025l.394.049.271.025.418.025.148.025.32.025h.172l.517.049.837.1.64.1h.074l.271.049h.1l.222.049h.025l.394.1a13.179,13.179,0,0,1,1.822.615l.074.148.2.2.1.049.2.074.246.049v.049l.025-.025V-16.3l.049.025.1.1a.653.653,0,0,1,.148.123l.049.025.148.2.246.271.418.517a7.833,7.833,0,0,1,.394.788v.148l.074.172.074.222.025.246v.2l-.025.418.1.172.049.049-.049.246-.074.32v.172l-.074.3-.074.418-.1.3-.049.2v.714c-.025.025-.025.025-.025.049l-.246.369-.049.2-.123.32-.025.172a8.5,8.5,0,0,1-.615,1.009l-.1.123-.369.418-.345.64-.369.566-.172.2-.665.788-.738.763-.246.3-.492.517-.074.222-.443.394-.123.172-.615.64-.222.172-.246.2-.123.2-.271.271Zm16.148.468L44.7-.345A.526.526,0,0,0,44.726,0V.025l.025.025V.1l.025.074.074.1h.074c.025,0,.049.025.1.025l.049.025L45.12.3a4.133,4.133,0,0,0,.714-.049h.2L46.4.172l.3-.049h.049A.09.09,0,0,0,46.818.1h.049L47.04.074l.222-.025.32-.1.148-.025L47.951-.1l.837-.271.32-.074.049.049.074-.049.1-.074.443-.025.074-.025.1-.025.1-.074-.049-.074-.123-.049-.148.025H49.7a.09.09,0,0,0-.074.025H49.6l-.246.025-.32.025-.148.049h-.025l-.025.025L48.3-.542l-.123-.025-.345.1H47.68l-.025.025a5.781,5.781,0,0,1-.862.1h-.172l-.148-.025h-.2l-.246-.025a.767.767,0,0,1-.492-.222c-.123-.1-.074-.345.049-.665l.074-.074.123-.222.025-.148.1-.222.025-.1.2-.3.025-.1.148-.172.1-.222.1-.246.049-.074.123-.172.074-.123.049-.123.222-.3v-.148l.123-.2.2-.222.074-.148.049-.049v-.049l.049.025V-4.7h-.049l.049-.074v-.1l-.123-.074L47.237-5l-.049.025a.287.287,0,0,0-.148-.148l-.074-.025-.222.1-.025.025a2.182,2.182,0,0,0-.418.2l-.1-.049-.049.025-.025.049-.148.148-.222.123-.1.049-.591.222-.2.123-.123.074-.3.123-.222.123-.172.1-.3.3-.32.172-.222.172-.738.443-.345.1-.074.074-.123.074-.049.074-.1.025-.1.123-.025.025-.542.32-.172.049-.049.074c-.025,0-.049.025-.074.049l-.615.246-.2.2-.148.074-.222.1-.172.074-.148.123c-.345.172-.665.32-1.009.468l-.2.1-.2.049-.369.148-.246.025-.148.123c-.615.222-1.255.369-1.378.172a.48.48,0,0,1-.025-.2l.025-.025.025-.148.123-.2.049-.246.025-.172.1-.172a2.165,2.165,0,0,0,.148-.246L36.5-1.5c.1-.172.222-.345.345-.517l.1-.1.074-.123.049-.1L37.588-3l.049-.025h.025l.025-.074.148-.123.1-.123.025-.049.1-.074.148-.172.148-.148.074-.074.172-.148.2-.443.246-.271.123-.2.074-.3-.049-.418-.025-.025a.55.55,0,0,0-.074-.345.024.024,0,0,1-.025-.025v-.025l-.123-.1h-.172l-.222.148-.271.345-.148.123-.074.148v.1l.049.148-.049.172V-4.7l-.049.246-.025.049-.049.074-.1.172-.345.369-.123.2h-.025v.049l-.123.172-.049.049-.025.049L37-3.151l-.1.123-.148.222-.1.246-.123.172-.148.2-.074.2-.3.517-.172.2-.049.1-.123.148-.025.074-.074.2-.1.123-.049.2L35.348,0V.148a1.3,1.3,0,0,0-.025.32L35.4.591l.025-.025V.591c.049,0,.074.025.123.025l.246.148.148.074h.148V.862l.689.074h.1L36.849.96l.025.025L36.9.96l.025-.049H37l.148-.049h.025l.025.025.074-.049V.812L37.44.738l.369-.049.2-.1L38.08.517l.148-.1L38.4.369l.1-.025L38.646.2l.1-.049.074-.025L38.868.1l.025-.025.049-.025.123-.1h.074l.074-.074.222-.1V-.246l.074-.025.1-.123.049-.025L39.7-.468l.96-.542.049-.049.271-.1.714-.394.074-.1h.049l.123-.123L43.4-2.609l.148-.074.443-.271.615-.32.246-.123.172-.049L45.1-3.5l.517-.172.32-.123h.049l.1-.074.049.123.049.074v.2l-.1.148-.025.148-.123.222-.025.074-.123.222-.074.1-.049.123c-.148.3-.32.566-.468.862l-.025.049c0,.025-.049.074-.049.1l-.074.1-.025.1-.123.222-.025.074v.049a.7.7,0,0,0-.1.3Zm7.065-1.5.123-.123.148-.246.172-.369.3-.468.148-.246.049-.1.148-.172.222-.369.1-.172.049-.148.148-.222s.025.025.025,0a4.087,4.087,0,0,0,.394-.517h.025l.074-.172.1-.123.222-.246.148-.025.271-.345-.025-.049a1.773,1.773,0,0,0,.517-.96l.025-.074-.025-.025a.457.457,0,0,0-.32-.32l.123-.049.025-.025-.049-.049h-.074l-.1-.025-.1.074v.049l-.1.049-.123-.025-.172-.025h-.123l-.1.1h-.049l-.049.025v.123l-.123.025.049.025-.025.074v.1l-.074.123-.123-.074-.1.148.025.1h.049l-.049.025h.049l-.1.025-.049.049V-6.6l.123.049.025-.025.049.074-.025.049-.074.123-.025.074V-6.2l-.049.049c0,.123.1.246.222.123l.1-.123.025.025-.074.1.025-.049-.074.074.1.049v.074l-.025.123-.074.172-.148.172-.074-.049-.148.025-.148.246v.074l-.172.246-.049.049-.025.074-.123.222-.1.148-.246.418-.418.517v.1l-.32.492-.074.049-.271.345-.049.148-.172.148-.148.369-.123.246-.074.025-.172.246-.3.418-.074.049H50.24l-.222.172v.049l-.074.123-.1.074v.049L49.822-.3l-.172.246-.1.3-.074.172.025.1.049-.049-.074.3-.049.049v.1a.286.286,0,0,0,.049.246v.025l.123.172.222.049.246-.172.394-.3.148-.148.049-.123.025-.049.049-.148.123-.222.1-.123.123-.2L51.5-.492l.246-.222.1-.123.1-.074.1-.172.246-.246.1-.074.123-.123.222-.246.2-.172.025-.049.172-.172.2-.123.1-.049.3-.271.32-.345.172-.123.148-.222,1.058-.886.714-.468.148-.172.369-.246.222-.172.123-.074.468-.246.148-.148.369-.222.985-.517.123-.123.148-.074c.148-.074.542-.271,1.009-.468l.985-.2.148-.025.271-.123.2.025.123-.025.345-.148.369-.049.1.123.049.32.025.172-.025.123-.049.025v.123l.123-.1v.246l.148.172h.271l.3-.1.3-.591.049-.64-.172-.2a.128.128,0,0,0-.049-.1.885.885,0,0,0-.3-.2l-.1-.1-.148.049a3.337,3.337,0,0,0-1.132.172l-.32.025-.172.074-.271.1-.222.123L61-7.778l-.443.148-.443.172-.148.123a8.616,8.616,0,0,0-.812.394l-.222.1-.517.172-.271.148-.271.246-.369.148-.148.1-.2.2-.492.3H56.64l-.049.049-.222.148-.1.025-.123.123-.443.3v-.025l-.689.492-.025.025-.468.369H54.5l-.049.049-.418.32-.443.271L53.194-3H53.12l-.443.418h-.148l.1.1-.2.074v.025h-.049l-.049.025-.1.074-.345.246-.2.172.049-.1ZM83.742-.049h.074a1.236,1.236,0,0,0,.3.049h.246a1.706,1.706,0,0,0,.492-.074h.123L85.12-.1l.148-.074h.049V-.2l.3-.074L85.735-.3l.049-.025a2.554,2.554,0,0,0,.246-.1l.246-.1.1.025.2-.123.443-.2.345-.123.222-.1.1-.074.123-.049.049-.025.222-.123.1-.074.1-.049.148-.1.123-.074.148-.074.418-.222.074-.025.049-.049.123-.049.222-.148.3-.148h.074l.2-.148.738-.468.148-.025L91.077-3l.049-.074.123-.074.049-.025.123-.049.025-.1-.074-.123-.1.025L91.1-3.3l-.32.2-.123.074-.32.123-.1.074-.886.443-.074.049-.689.345-.32.172-.32.148L87.8-1.6l-.148.025-.345.2h-.074l-.148.123-.148.025-.32.2L86.1-.763l-.148.025-.025.025-.074.049-.123-.049-.148.074-.246.1-.3.025-.074.049-.025.025c-.025,0-.049.025-.074.025V-.443l-.148.025a1.545,1.545,0,0,1-.862-.1l-.172-.148-.049-.271.074-.246.1-.2.148-.246.1-.172.3-.369.148-.2.074-.148.148-.369.222-.3.123-.3v-.074l.148-.418.049-.049h-.025l.025-.025V-4.16l-.074-.074-.123-.049-.123-.025-.025.025-.172.025.025-.025L84.7-4.308l-.123.049h-.172l-.2.074H84.16l-.049.049-.074.025-.049-.025h-.025l.025.025-.123.074v.025l-.025.074-.049.049v.025l-.025.049-.074.074a.515.515,0,0,0-.148.1h-.1l-.172.074-.1.074-.1.148-1.058.788-.591.418-.148.123-.3.222c-.2.172-.369.345-.566.492l-.123.049-.123.123a5.045,5.045,0,0,1-.468.369l-.1.025-.369.148-.025-.025-.025-.074-.049-.1-.025-.123-.049-.2L79.04-1.28l.025-.049.074-.172.049-.049.074-.1.1-.345.271-.492v-.025h.025L79.9-3.1l.32-.517L80.886-4.7l.2-.222L81.132-5l.271-.32.394-.394.148-.246.2-.172c.025-.049.074-.074.123-.148a7.688,7.688,0,0,0,.615-.862l.074-.1L83-7.483l-.148-.246-.1-.025-.222-.025.049-.049h-.049l-.049.025-.074.049-.148.049-.246.074-.542.222-.714.148-.369.2-.049.1-.369.222-.3.123-.222.148-.172.074-.049.049-.172.148-.1.025-.1.074-.049-.025-.1.148-.32.2-.443.2-.148.172-.2.172-.64.492-.246.271-.2.123-.222.2-.148.1-.074.1-.271.246-.172.1-.468.443-.025.049-.123.074-.222.222-.345.246-.1.025-.172.246-.345.246-.148.074-.049.049-.148.172-.517.394-.2.123-.566.492-.3.3-.148.123-.049.025-.049.049-.246.222L71.212.1l-.246.1-.123.074L70.72.418,70.7.542l-.148.074L70.5.665l-.049.025h-.074L70.3.738h-.1l-.025.025.049-.1L70.4.222l.443-.64.246-.32.271-.394.3-.418.222-.271.2-.148.025-.074.172-.222.1-.148.074-.222.222-.32.172-.172v-.049l.271-.345.172-.1.3-.369.271-.2.074-.074.1-.222.148-.2.2-.3.148-.123.1-.1.025-.1h.049l.025-.049.049-.025.025-.025.1-.074.049-.1L75-5.735l.025-.172.1-.148V-6.1l.271-.443.025-.025.271-.2.394-.271.2-.517.049-.123V-7.8l.123-.2v-.148l-.074-.074-.123-.049h-.148l-.271.025-.123.025-.049.074h-.074L75.52-8.1V-8l-.1-.049-.246.148-.148.246-.049.074-.049.246-.025.222H74.88v.025l.025.025v.025l-.049.1-.049.074-.123.172.049.025-.1.2-.172.172-.2.369-.074.025-.148.123v.025h-.049l-.025.074-.074.049-.025-.025-.025.025h.025l-.074.123v.1l-.049.074.025.049v.074l-.049.049-.049.148-.123.049-.123.1-.049.148L73.3-4.48l-.074.123-.3.418-.443.566-.123.2-.468.591-.1.172-.148.172-.443.615-.148.222-.074.123-.123.074v.049L70.7-.911l-.074.1-.049.1-.148.222-.172.2-.271.418-.074.025-.025.1-.025.025-.517.542-.271.468-.1.123-.123.1-.025.1.025.025-.074.074L68.7,1.92l-.025.2.074.1.1.148.049.025.148-.074.049.1.123.025h.123l.172-.049v.025h.049l.3-.074.148-.1.025-.025h.025l.049-.049.074-.025.049.025V2.142l.1-.1V1.969l.049-.074V1.846L70.4,1.8l.123-.074.025-.049.025-.074.025-.025.074-.025.123-.049.074-.123.123-.222.172-.2.246-.246.025-.049.123-.148.32-.246L72.123,0l.049-.025h.049V-.1l.271-.246h.025l.148-.148.32-.271.049-.025.1-.074.123-.1.025-.074.665-.591.049-.025.1-.123h.074l.049-.049h.049l.074-.123.2-.074.2-.222.074-.074.172-.3a1.353,1.353,0,0,0,.222-.172l.369-.246.492-.443.222-.246.32-.222.738-.517.1-.049.025-.025.172-.148.074-.025.517-.246.862-.591.222-.172.837-.418.3-.246.418-.222a.024.024,0,0,0,.025-.025l.049.025.1-.025.468.074h.369l-.468.591-.345.418-.492.738-.517.837-.1.123-.074.172-.246.271-.025.074-.049.049-.148.246-.394.492-.074.1-.222.443-.074.049-.123.246-.025.148-.074.517a.823.823,0,0,0-.025.64l.148.271.1.1.1.074.123-.025V0h.025a2.031,2.031,0,0,0,.862-.394L79.9-.468l.246-.2.172-.1.123-.074a2.579,2.579,0,0,1,.271-.2l.049-.025.148-.049.1-.123.074-.1.492-.369.443-.3.148-.074.3-.2.1-.148.492-.271.172-.074.172-.049.172-.172.2-.172.591-.345.1-.025.2-.1H84.7l.074-.049v.1l-.049.123-.074.148-.222.3-.025.1-.049.074-.2.246-.246.369-.222.246-.123.148-.123.246-.148.369-.049.246v.074a.57.57,0,0,0,.049.418c0,.025.025.049.049.074l.049.172ZM95.951-.985,96-1.034l.074-.049.3-.1.074-.049.1-.123c.418-.246.862-.542,1.329-.862l.148-.074.222-.074.222-.2.222-.172.763-.468h.074l.32-.172v-.049h.025l.049.025.049-.074.148-.074.074-.049.074-.1-.074-.148-.074-.025h-.074l-.049.1c-.271.148-.492.3-.689.418l-.123.074-.246.123-.172.1-.1.1-.172.074-.123.123c-.025,0-.025.025-.074.025l-.123.074-.123.049-.172.123H97.8l-.517.3-.1.074-.123.049-.3.172-.074.074-.271.2L96.2-1.5l-.246.148-.2.1-.148.049-.074.1h-.074l-.2.1-.049.074-.025.025-.443.222H94.6l-.049.1-.862.418-.222.049-.394.148-.492.123-.222.123-.3.172-.123.074c-.148.049-.3.074-.418.123h-.074l-.517.123h-.123l-.1-.049L90.56.738l-.148.049L90.24.763h-.074l-.148.025-.1-.049c0-.025-.025-.049-.074-.271l.049-.3V.025l.148-.517.2-.418.049-.2.172-.443a1.739,1.739,0,0,1,.246-.3l.271-.468.148-.222.172-.246.369-.418.3-.345.049-.074.1-.172.172-.123.049-.1.2-.2.172-.246.222-.2.025-.148c.025-.025.074-.049.1-.1l.345-.345.025-.049.049-.123.418-.394.148-.049h.049l.1-.074.074-.074.246-.271.172-.271.049-.271v-.123l-.172-.123-.2-.025-.148.025-.025.049-.074.049c-.025-.025-.049-.049-.074-.049a.422.422,0,0,0-.394.2l-.172.1-.172.172V-6.5h-.049l-.074.049L93-6.326l-.123.2v.123l-.049.246-.1.074-.1.2-.172.148L92.185-5l-.123.369-.468.788-.222.2-.1.148-.148.074L90.9-3.2l-.074.246-.074.074-.074.148-.074.172-.2.3c-.074.1-.123.172-.172.246l-.148.123-.049.1-.172.2-.172.3-.049.172-.2.492-.172.492v.1a1.291,1.291,0,0,0-.074.665l-.025.148.1.1a.957.957,0,0,0,.566.394l.468.1.271-.074L91,1.3l.3-.049.345-.172.394-.074L92.185.96l.222-.1.271-.148L92.825.64l.2-.074L93.391.32l.148-.074.369-.2L94.08,0l.074-.049L94.178-.1,94.4-.2l.32-.123.074-.049.025-.049.123-.074.222-.049.345-.148.246-.2Zm2.043-11.422-.049-.123.074-.271-.246-.1-.2-.2-.246.074-.172.172V-12.9l-.123.049h.049l-.1.1H96.96l-.148.2-.2.123-.1.123-.271.271-.049.025-.172.2-.246.3-.074.148L95.532-11l.049.2-.3.418c0,.074-.049.123-.049.148l-.1.074.025.2.271-.172v-.049l.172-.2.1-.123.246-.074.2-.369.246-.074.123-.2.1-.049.025-.025.2-.148.2-.074.222-.049.246-.049v-.025l.074-.1.1-.123.2-.345Zm6.745,5.022.172.049.418-.049.271.074h.049l.2.074h.025l.049.049-.049.049.148.025v.049l.025.074.074.074.025-.025.1.025.1.074h.049l.148.049.32.1.049-.025h.222v.074l.148-.074.148.025.025-.025.1.074.123.025.32-.025.246-.172v-.3l-.049-.074v-.1l-.074-.074-.123-.1v-.025l-.025-.049v.074h-.025l.025-.049-.049-.148-.246-.148-.271-.025h-.1l-.222.049-.2.1-.025-.025h-.025v.025l-.049.025h-.148v.025h-.049l-.123-.074-.148-.049h-.172l-.222.025-.148-.1-.271-.025h-.1l-.222.049-.123.074a5.254,5.254,0,0,0-1.083,0l-.148-.025-.049.025h-.443a.268.268,0,0,0-.123.025l-.049.025-.074.025-.3.074-.271.049-.123.074-.025.025-.148.074-.049-.025-.1.1h-.049l-.837.271-.123.123-.222.172-.172.123-.148.222-.025.025-.025.049a2.231,2.231,0,0,0-.271.394c0,.049,0,.1.049.123l.492.517.2.222.1.1.345.123.1.1a.663.663,0,0,0,.2.172l.025.049a2.759,2.759,0,0,0,.517.32l.492.246.222.123.123.123h.148l.246.049.025.025.271.2-.148.074c-.32.074-.615.148-.911.246l-.443.074-.665.246-.542.3-.468.172-.271.049-.1.049h-.074l-.074.049-.1.074c-.123.049-.271.074-.345.1l-.1-.025h-.074v.074l-.148.123-.591.271-.394.148-.222.1-.172.074-.271.1L97.4-.985l-.172.074-.32.246-.369.172L96.32-.32l-.049.049-.1.049-.025-.025h-.025v.025L96.074-.2,95.8.074l-.049.172c-.123.172-.148.32.025.418a1.924,1.924,0,0,0,.96.3l.148.025.246.025A1.274,1.274,0,0,0,97.674.96L97.8.985h.763l.246.025.862-.172h.123l.172-.025.517-.074.492-.049.271-.074.2.025.1-.025.123-.074.074-.025.222-.049.049-.049.049-.025a16.093,16.093,0,0,0,1.8-.468l.1-.025L104-.148l.345-.172.468-.123h.049l.2-.123.3-.172.1-.074.1-.025.369-.369.123-.2.148-.246.025-.172v-.148l.049-.2v-.025l.049-.074-.025-.074-.025-.049h-.049a.187.187,0,0,0-.049-.1V-2.56h-.025l-.2-.2-.222-.172-.148-.123-.271-.123-.148-.049-.074-.025-.049-.049.2-.049L105.3-3.4l.123-.049.123-.025.123-.074h.049l.222-.1.049-.025.591-.222a8.8,8.8,0,0,1,.862-.246h.025l.025-.025c.271-.074.542-.123.837-.222.394-.1.763-.2,1.108-.32l.32-.049.345-.1.32-.1A.35.35,0,0,0,110.572-5l.911-.049.074.049.345-.172.123-.025.123.025.123-.074h.025a.188.188,0,0,0,.049.123l.049.222.1.074.049.148.172.123a.956.956,0,0,1,.2.222l.2.222.148.074.369.3.074.049c.074.049.123.148.2.2l.1.172.345.222.271.2.246.32.148.123.222.394.172.418.049.025-.1.049h-.2L115-1.5h-.246l-.074.049h-.148l-.123.025-.1-.025-.566.074-.074.049H113.5l-.394.074-.049.025-.394.123-.271.049-.049-.025-.148.049-.222.025-.025.025-.738.1-.1.049-.64.148-.271.025-.345.074-.148.074-.542.074-.049-.025-.025.025-.074.049-.3.025-.1.025h-.148l-.271.074-.2.025h-.1l-.32.049-.418.271-.369.148-.2.1-.049.049-.049-.025h-.025V.369l.025.025-.1.074-.049.1.049.148.123.172a.192.192,0,0,0,.172.074,1.625,1.625,0,0,0,.345.025A3.523,3.523,0,0,0,108.062.96l.96-.148.64-.025.665-.074h.615l.148-.1.148-.049.246-.025.1-.025.3-.123.862-.148.345-.074.345-.1.3-.074.2-.025.123-.025.172-.025.2-.1.271-.074.148-.074.074-.025.246-.074.172-.025.049-.074c.025,0,.049-.049.1-.049l.1-.025.3-.2.148-.222.074-.074v-.049l.074-.148v-.246l.1.025.345-.1.025-.025.1.025.049-.049h.049l.1.025h.1l.1-.074.837-.172.665-.074h.394l.468-.123.32.025.222-.1-.148-.1-.591.025-.123.025c-.074.025-.074-.025-.148-.025h-.542l-.222.074-.123.025-.123-.025-.074.025-.246.074-.665.074-.074-.025-.1.049-.714.172V-1.8l-.025-.025v-.025l-.049-.1-.1-.074a1.518,1.518,0,0,0-.32-.443l-.1-.123v-.049l-.1-.222-.1-.074-.32-.2-.246-.123-.32-.271-.025-.049-.246-.222-.369-.369-.369-.3-.3-.369-.049-.148-.2-.369-.049-.049a.186.186,0,0,1-.025-.1l.32-.049.271-.074h.2l.148-.049.074-.1.074-.025.172-.1h.1l.271-.148.3-.1.689-.2h.025l.172-.074.049-.025.222-.049.172-.049.172-.074.517-.172.246-.1v-.025a.188.188,0,0,0,.123-.049h.074l.1-.074.123-.049.123-.025.123-.074.148-.049.1-.148a.7.7,0,0,0,.32-.345l.025-.123-.074-.1-.2-.049L117.982-8l-.222-.074-.443-.123-.172-.025-.1.025h-.074l-.172-.025-.1.025-.123.025c-.074,0-.148.025-.222.025l-.074-.025-.148.049-.246.025-.074.049c-.074,0-.148.025-.222.025l-.025-.025-.2.1a.09.09,0,0,1-.074.025,7.253,7.253,0,0,0-1.378.394l-.222.049-.123.1-.148.025-.049.1-.123.074-.222.123-.148.123-.148.2-.123.1-.148.123-.049.074-.1.222v.074c0,.025-.025.074-.025.1a.666.666,0,0,0-.074.369l-.345.074h-.1l-.271.074-.566.148-.172.074-.3.074h-.1l-1.058.271-.049.025-.2.025-.738.172-.049.074-.172.049-.763.074-.492.2-.394.1-.3.1-.172.025-.812.271-.2.074-.271.049-.32.074-.32-.148-.049-.049-.222-.074-.345-.172-.591-.394h-.074l-.394-.246-.123-.049-.222-.123h-.049l-.32-.246-.049-.025v-.049h-.074l-.025-.049-.32-.172-.148-.049-.123-.1h-.025a.365.365,0,0,1-.025-.172.7.7,0,0,1,.345-.689l.222-.123.025-.049a6.508,6.508,0,0,1,1.3-.542h.074l.222-.025.345-.025.418-.1.271-.049.394-.049ZM105.3-1.3l-.418.222-.049.049-.172.049-.074.074-.32.1-.123.074-.222.074-.049.049-.517.148-.025.025-.3.074-.172.025-.2.074a.268.268,0,0,1-.123.025h-.025c0,.025-.049.025-.074.025L102.4-.2l-.172.049-.049.074h-.025l-.2.049L101.711,0h-.049l-1.255.3-.468.049h-.271l-.049.025-.1.025-.246.074h-.148l-.32-.025-.2-.049-.345.049-.3-.025h-.3L97.428.345,97.3.32,97.255.3,97.206.222l.025-.148.025-.123.074-.123.148-.148.246-.222.443-.2.32-.172.566-.3.394-.172L100.6-1.92h.1l.3-.148.566-.148.246-.148.763-.271a7.473,7.473,0,0,0,.886-.3L104.074-3l.148-.074.074.025.123.1.148.123.222.1.2.148.492.32.1.148.049.148V-1.9c-.1.468-.1.345-.172.418Zm10.683-6.351h.246l.2-.025.542.049.148.074v.074L117-7.434l-.074.074h-.049l-.025.074H116.8v.025l-.049.049-.074.025h-.049v.049a.148.148,0,0,1-.1.025l-.812.32-.271.074-.123.025-.492.222-.2.049h-.123l-.049.049-.222.074-.2.049-.025.025a.255.255,0,0,0-.1.025l-.542.123-.2.074-.148.049-.32.1a.653.653,0,0,1,.123-.345,2.517,2.517,0,0,1,1.009-.837l.148-.074.074-.049.2-.025.074-.025.1-.074.271-.1.222-.049.172-.074h.123l.148-.025.1-.049C115.545-7.582,115.643-7.606,115.988-7.655ZM112.418-.172l-.123.049a.481.481,0,0,0-.172.025H111.9l-.468.074L111.065,0l-.246-.025-.172.074c-.074.025-.172,0-.246.025h-.2l-.517.049L109.538.1l-.049-.049L109.44.1l-.172.074h-.2L109.1.148l.32-.123.443-.172.246-.025.369-.148.418-.074.591-.148h.074l.271-.049.148-.074.394-.1h.049l.049-.025.2-.049.148-.049.123-.025a.148.148,0,0,1,.1-.025l.418-.074.049-.025.517-.1.443-.049h.3l.222-.123.369-.074v.025l-.148.271L115-.96l-.025.025-.591.394-.025.025-.3.074h-.2l-.123.049h-.1l-.3.074a2.194,2.194,0,0,1-.271.049l-.222.025-.123.025-.074.049Zm13.243-.812.049-.049.074-.049.3-.1.074-.049.1-.123c.418-.246.862-.542,1.329-.862l.148-.074.222-.074.222-.2.222-.172.763-.468h.074l.32-.172v-.049h.025l.049.025.049-.074.148-.074.074-.049.074-.1L129.9-3.84l-.074-.025h-.074l-.049.1c-.271.148-.492.3-.689.418l-.123.074-.246.123-.172.1-.1.1-.172.074-.123.123c-.025,0-.025.025-.074.025l-.123.074-.123.049-.172.123h-.074l-.517.3-.1.074-.123.049-.3.172-.074.074-.271.2-.222.123-.246.148-.2.1-.148.049-.074.1h-.074l-.2.1-.049.074-.025.025-.443.222h-.148l-.049.1-.862.418-.222.049-.394.148-.492.123-.222.123-.3.172-.123.074c-.148.049-.3.074-.418.123h-.074l-.517.123h-.123l-.1-.049-.148.025-.148.049-.172-.025h-.074l-.148.025-.1-.049c0-.025-.025-.049-.074-.271l.049-.3V.025l.148-.517.2-.418.049-.2.172-.443a1.739,1.739,0,0,1,.246-.3l.271-.468.148-.222.172-.246.369-.418.3-.345.049-.074.1-.172.172-.123.049-.1.2-.2.172-.246.222-.2.025-.148c.025-.025.074-.049.1-.1l.345-.345.025-.049.049-.123.418-.394.148-.049h.049l.1-.074.074-.074.246-.271.172-.271.049-.271v-.123l-.172-.123-.2-.025-.148.025-.025.049-.074.049c-.025-.025-.049-.049-.074-.049a.422.422,0,0,0-.394.2l-.172.1L123-6.548V-6.5h-.049l-.074.049-.172.123-.123.2v.123l-.049.246-.1.074-.1.2-.172.148L121.9-5l-.123.369-.468.788-.222.2-.1.148-.148.074-.222.222-.074.246-.074.074-.074.148-.074.172-.2.3c-.074.1-.123.172-.172.246L119.8-1.9l-.049.1-.172.2-.172.3-.049.172-.2.492-.172.492v.1a1.291,1.291,0,0,0-.074.665l-.025.148.1.1a.957.957,0,0,0,.566.394l.468.1.271-.074.418.025.3-.049.345-.172.394-.074L121.9.96l.222-.1.271-.148.148-.074.2-.074L123.1.32l.148-.074.369-.2L123.791,0l.074-.049.025-.049.222-.1.32-.123.074-.049.025-.049.123-.074.222-.049.345-.148.246-.2ZM127.7-12.406l-.049-.123.074-.271-.246-.1-.2-.2-.246.074-.172.172V-12.9l-.123.049h.049l-.1.1h-.025l-.148.2-.2.123-.1.123-.271.271-.049.025-.172.2-.246.3-.074.148-.172.369.049.2-.3.418c0,.074-.049.123-.049.148l-.1.074.025.2.271-.172v-.049l.172-.2.1-.123.246-.074.2-.369.246-.074.123-.2.1-.049.025-.025.2-.148.2-.074.222-.049.246-.049v-.025l.074-.1.1-.123.2-.345Zm7.483,8.32.025-.443-.123-.3L135.015-5l-.3-.32-.2-.123-.1-.074-.049-.025-.074-.074h-.049a5.883,5.883,0,0,0-.64-.246l.123-.074.443-.049h.2l.2-.074c.443-.049.837-.123,1.231-.172l.394.025.123-.074.222-.049.049-.025c.714-.1,1.477-.2,2.56-.271a5.074,5.074,0,0,1,.64-.074l.3-.025h.369a7.911,7.911,0,0,1,1.625.123l.369.1.2.148.246.123.074.123c0,.049.025.074.025.1l-.172.443-.049.123a1.856,1.856,0,0,0-.148.32v.049L142.572-5v.2l.148-.049.1-.148c0-.025.025-.049.049-.074V-5.1l.1-.148.222-.394.074-.172.148-.123v-.074l-.1-.148-.074-.148-.123-.049-.074-.074h-.049a4.009,4.009,0,0,0-.418-.271l-.074-.1h-.1l-.1-.074a5.232,5.232,0,0,0-.689-.148l-.1-.025-.2-.025-.1.025h-.074L141-7.114l-.172.025h-.049l-.222-.025h-.172l-.148.049h-.148l-.049-.049h-.049l-.049.025-.1.025c-.148,0-.3.025-.418.025a1.4,1.4,0,0,1-.32.025h-.025l-.3-.025-.2.025h-.492l-.246.025-.148.025-.394.123-.369.025-.3.074-.025.025-.689.074a.739.739,0,0,0-.271-.148l-.074-.074-.172.025a1.825,1.825,0,0,0-.517.025l-.222.025-.2.025-.123.074-.074.025-.2.1-.222.148a1,1,0,0,1-.222.123l-.418.049-.074-.025-.468.074-.394-.025-.271.049a6.747,6.747,0,0,0-1.182-.1l-.369-.1-.2-.074-.246.025-.246.049-.2.074-.2.3-.025.172.074.123.148.1.3.074.566-.025h.025a6.691,6.691,0,0,0,.763-.074h.3l.074.025.025-.025.074-.025a3.364,3.364,0,0,0,.468-.049l.345.049c-.222.123-.443.3-.689.443l-.222.123-.2.1-.32.271-.345.123-.222.2-.172.2-.222.148-.074.025-.123.123-.591.443L129.3-3.52l-.049.074-.2.123-.049.049-.123.025-.148.123-.542.418-.1.1-.074.123-.369.369-.418.3-.049.074-.172.123-.3.3-.1.148-.172.418-.172.443.025.148.074-.025V.025c.025.172.542.418.64.492a1.619,1.619,0,0,0,.369.1c.025,0,.074-.025.1-.025V.615l.443.049.468.025h.172l.172.049.074-.025.1-.123.074-.025.1-.074c.345-.1.689-.246,1.083-.394h.049l.148-.025.1-.049L130.732,0l.1-.025L131-.148l.1-.123.172-.049.123-.123h.025l.2-.148h.1V-.665c.025,0,.025,0,.049-.025h.1l.049-.049V-.763l.271-.172h.074V-.985a10.911,10.911,0,0,0,1.452-1.034l.049-.025.2-.148.123-.123.1-.123.246-.246.222-.148.172-.246.148-.246c.025-.074,0-.148.025-.2l.1-.2A2.052,2.052,0,0,0,135.188-4.086Zm-1.157.96h-.049l-.049.074-.074.074-.049.1-.1.025-.074.123-.148.172-.148.123-.049.074-.074.1c-.2.172-.394.345-.591.492l-.049.025-.074.074-.763.517h-.049l-.1.025-.418.222-.2.2-.3.148h-.074l-.025.049a9.221,9.221,0,0,1-1.058.394,3.558,3.558,0,0,1-1.8.3c-.049,0-.1-.025-.148-.025l-.148-.1h-.049a.686.686,0,0,1-.2-.468l.025-.074.025-.049V-.689l.049-.123.025-.1V-.96a2.155,2.155,0,0,1,.394-.615c.025,0,.025-.025.049-.025l.123-.172.222-.3.271-.32.025-.025.345-.246.123-.1.271-.172.3-.2.369-.2.123-.1.025-.025.492-.32.172-.1.246-.172.886-.517.172-.148.222-.172c.443-.3.738-.542,1.058-.738a.086.086,0,0,0,.049.025l.148.049.2.123.222.074.172.074.2.123.172.123.148.148.123.246V-4.6l-.025.345-.1.222v.148A3.756,3.756,0,0,1,134.031-3.126Zm.689-3.323c.246-.1.566-.222.738-.123Zm6.228,4.135-.369.542-.049.123-.123.148-.123.32-.1.2-.074.049v.1l-.049-.025h-.025v.074l-.3.148-.246.246-.123.148L139.2.172V.665l.1.222.2.074.123-.025.074-.1.074.074V.862l-.025-.049.074-.025.025-.049c.025-.025.025-.025.049-.025l.222-.2.025.025.1-.148c.394-.369.738-.738,1.108-1.108l.222-.172.246-.2.1-.2.1-.074.172-.148.2-.123.074-.049.2-.148.1-.2.1-.025.2-.123.1-.025.763-.566.049-.148.2-.1.394-.394.074-.049.049-.074.517-.345c.025,0,.025-.025.049-.025l.2-.148.246-.123c.2-.074.246,0,.394.025.32.074.394.369.345.738l-.1.172.049.049h.025l-.246.886-.049.049h.025l-.123.443-.1.3v.246a1.99,1.99,0,0,0,.025.394l.025.1a.583.583,0,0,0,.32.32c.271.123.517.369.812.345h.049l.2.025.148-.049.2.049.1-.025.123-.074.32-.025a4.929,4.929,0,0,0,.591-.1l.074-.025.1-.025.1-.049.172-.025.3-.049.222-.049.172-.074.369-.2.345-.049.271-.148.32-.271.025-.025.1-.025,1.034-.517.394-.222a7.973,7.973,0,0,0,.788-.418h.025l.123-.049.049-.049c.025-.025.049-.049.074-.049l.1-.025.049-.049.3-.2h.049l.172-.1.172-.049.2-.2c.418-.246.812-.517,1.206-.763l.123-.049.074-.049v-.1l-.074-.1h-.148l-.049.049-.222.148h-.074v.049h-.074l-.345.2-.1.1-.837.492-.689.3-.222.148-.2.172-.172.123-.591.3-.123.025-.246.172c-.3.148-.591.3-.886.418l-.418.148-.222.074-.222.025-.345.2-.468.172-.148.025-.32.123-.148.025-.492.2a5.41,5.41,0,0,1-1.206.1l-.2-.172-.1-.1-.1-.172v-.2l.049-.172.049-.049-.049-.049-.074-.3-.172-.222v-.049l.148-.615v-.2l.025-.172.049-.3.025-.246v-.172l-.074-.394-.246-.222-.172-.2-.468-.025V-4.5a1.789,1.789,0,0,0-.812.2c-.2.1-.394.222-.615.32l-.123.049-.566.369-.074.074-.394.271-.148.123-.222.148-.049.074-.123.148c-.345.3-.665.615-.985.911l-.123.074-.222.222-.148.1-.148.172-.074.074-.148.1-.074.148-.025.025-.074.1a2.951,2.951,0,0,1-.271.3l.1-.222.074-.148.049-.025.049-.123v-.025l.271-.394.1-.2.517-.812.148-.345.3-.369.049-.2.517-.714.1-.049v-.049l.049-.148.049-.1.2-.148.1-.246.123-.222.148-.3.246-.345.148-.1.2-.271.123-.665a2.941,2.941,0,0,0,.369-.862c0-.025-.025-.049-.025-.074l.049-.148.049-.049h.049l.049-.074-.1.049v-.2l-.049-.148-.246-.148-.271.049-.443.3-.2.566-.049.148-.049.468.049.394-.049.049v.049h.049V-6.2l-.1.3-.222.369-.246.394-.3.517-.074.1-.123.2-.517.714-.074.148-.271.394-.172.3-.148.246-.025.025-.074.123Z" transform="translate(1.009 20.382)" fill="#fff"/>
</svg>
